M48
;DRILL file {KiCad 4.0.7} date 05/31/19 16:30:06
;FORMAT={2:4/ absolute / inch / suppress leading zeros}
FMAT,2
INCH,TZ
T1C0.024
T2C0.031
T3C0.039
%
G90
G05
M72
T1
X54000Y-41250
X54000Y-45000
X54500Y-40750
X54500Y-41750
X54500Y-44500
X54500Y-45500
T2
X56500Y-40750
X56500Y-41734
X58250Y-40750
X58250Y-42000
X58250Y-43250
X58250Y-44500
X62250Y-40750
X62250Y-42000
X62250Y-43250
X62250Y-44500
T3
X52500Y-40750
X52500Y-41750
X52500Y-43000
X52500Y-44000
X52500Y-45000
X52500Y-46000
X60750Y-46000
X61750Y-46000
X62750Y-46000
X63750Y-40750
X63750Y-41750
X63750Y-43500
X63750Y-44500
X63750Y-46000
T0
M30
