G04 #@! TF.FileFunction,Legend,Top*
%FSLAX46Y46*%
G04 Gerber Fmt 4.6, Leading zero omitted, Abs format (unit mm)*
G04 Created by KiCad (PCBNEW 4.0.7) date 05/31/19 16:29:18*
%MOMM*%
%LPD*%
G01*
G04 APERTURE LIST*
%ADD10C,0.100000*%
%ADD11C,0.120000*%
%ADD12C,0.150000*%
G04 APERTURE END LIST*
D10*
X144494524Y-116444762D02*
X144637381Y-116492381D01*
X144875477Y-116492381D01*
X144970715Y-116444762D01*
X145018334Y-116397143D01*
X145065953Y-116301905D01*
X145065953Y-116206667D01*
X145018334Y-116111429D01*
X144970715Y-116063810D01*
X144875477Y-116016190D01*
X144685000Y-115968571D01*
X144589762Y-115920952D01*
X144542143Y-115873333D01*
X144494524Y-115778095D01*
X144494524Y-115682857D01*
X144542143Y-115587619D01*
X144589762Y-115540000D01*
X144685000Y-115492381D01*
X144923096Y-115492381D01*
X145065953Y-115540000D01*
X145494524Y-116492381D02*
X145494524Y-115492381D01*
X145827858Y-116206667D01*
X146161191Y-115492381D01*
X146161191Y-116492381D01*
X146589762Y-116444762D02*
X146732619Y-116492381D01*
X146970715Y-116492381D01*
X147065953Y-116444762D01*
X147113572Y-116397143D01*
X147161191Y-116301905D01*
X147161191Y-116206667D01*
X147113572Y-116111429D01*
X147065953Y-116063810D01*
X146970715Y-116016190D01*
X146780238Y-115968571D01*
X146685000Y-115920952D01*
X146637381Y-115873333D01*
X146589762Y-115778095D01*
X146589762Y-115682857D01*
X146637381Y-115587619D01*
X146685000Y-115540000D01*
X146780238Y-115492381D01*
X147018334Y-115492381D01*
X147161191Y-115540000D01*
X148351667Y-116492381D02*
X148351667Y-115492381D01*
X148827857Y-116492381D02*
X148827857Y-115492381D01*
X142232619Y-117092381D02*
X142565952Y-118092381D01*
X142899286Y-117092381D01*
X143232619Y-118092381D02*
X143232619Y-117425714D01*
X143232619Y-117092381D02*
X143185000Y-117140000D01*
X143232619Y-117187619D01*
X143280238Y-117140000D01*
X143232619Y-117092381D01*
X143232619Y-117187619D01*
X144137381Y-118092381D02*
X144137381Y-117092381D01*
X144137381Y-118044762D02*
X144042143Y-118092381D01*
X143851666Y-118092381D01*
X143756428Y-118044762D01*
X143708809Y-117997143D01*
X143661190Y-117901905D01*
X143661190Y-117616190D01*
X143708809Y-117520952D01*
X143756428Y-117473333D01*
X143851666Y-117425714D01*
X144042143Y-117425714D01*
X144137381Y-117473333D01*
X144994524Y-118044762D02*
X144899286Y-118092381D01*
X144708809Y-118092381D01*
X144613571Y-118044762D01*
X144565952Y-117949524D01*
X144565952Y-117568571D01*
X144613571Y-117473333D01*
X144708809Y-117425714D01*
X144899286Y-117425714D01*
X144994524Y-117473333D01*
X145042143Y-117568571D01*
X145042143Y-117663810D01*
X144565952Y-117759048D01*
X145613571Y-118092381D02*
X145518333Y-118044762D01*
X145470714Y-117997143D01*
X145423095Y-117901905D01*
X145423095Y-117616190D01*
X145470714Y-117520952D01*
X145518333Y-117473333D01*
X145613571Y-117425714D01*
X145756429Y-117425714D01*
X145851667Y-117473333D01*
X145899286Y-117520952D01*
X145946905Y-117616190D01*
X145946905Y-117901905D01*
X145899286Y-117997143D01*
X145851667Y-118044762D01*
X145756429Y-118092381D01*
X145613571Y-118092381D01*
X147470715Y-117568571D02*
X147613572Y-117616190D01*
X147661191Y-117663810D01*
X147708810Y-117759048D01*
X147708810Y-117901905D01*
X147661191Y-117997143D01*
X147613572Y-118044762D01*
X147518334Y-118092381D01*
X147137381Y-118092381D01*
X147137381Y-117092381D01*
X147470715Y-117092381D01*
X147565953Y-117140000D01*
X147613572Y-117187619D01*
X147661191Y-117282857D01*
X147661191Y-117378095D01*
X147613572Y-117473333D01*
X147565953Y-117520952D01*
X147470715Y-117568571D01*
X147137381Y-117568571D01*
X148280238Y-118092381D02*
X148185000Y-118044762D01*
X148137381Y-117997143D01*
X148089762Y-117901905D01*
X148089762Y-117616190D01*
X148137381Y-117520952D01*
X148185000Y-117473333D01*
X148280238Y-117425714D01*
X148423096Y-117425714D01*
X148518334Y-117473333D01*
X148565953Y-117520952D01*
X148613572Y-117616190D01*
X148613572Y-117901905D01*
X148565953Y-117997143D01*
X148518334Y-118044762D01*
X148423096Y-118092381D01*
X148280238Y-118092381D01*
X149470715Y-118092381D02*
X149470715Y-117568571D01*
X149423096Y-117473333D01*
X149327858Y-117425714D01*
X149137381Y-117425714D01*
X149042143Y-117473333D01*
X149470715Y-118044762D02*
X149375477Y-118092381D01*
X149137381Y-118092381D01*
X149042143Y-118044762D01*
X148994524Y-117949524D01*
X148994524Y-117854286D01*
X149042143Y-117759048D01*
X149137381Y-117711429D01*
X149375477Y-117711429D01*
X149470715Y-117663810D01*
X149946905Y-118092381D02*
X149946905Y-117425714D01*
X149946905Y-117616190D02*
X149994524Y-117520952D01*
X150042143Y-117473333D01*
X150137381Y-117425714D01*
X150232620Y-117425714D01*
X150994525Y-118092381D02*
X150994525Y-117092381D01*
X150994525Y-118044762D02*
X150899287Y-118092381D01*
X150708810Y-118092381D01*
X150613572Y-118044762D01*
X150565953Y-117997143D01*
X150518334Y-117901905D01*
X150518334Y-117616190D01*
X150565953Y-117520952D01*
X150613572Y-117473333D01*
X150708810Y-117425714D01*
X150899287Y-117425714D01*
X150994525Y-117473333D01*
D11*
X144689723Y-107060722D02*
G75*
G03X144690000Y-102449420I-1179723J2305722D01*
G01*
X142330277Y-107060722D02*
G75*
G02X142330000Y-102449420I1179723J2305722D01*
G01*
X142330277Y-107060722D02*
G75*
G03X144690000Y-107060580I1179723J2305722D01*
G01*
X146060000Y-104755000D02*
X140960000Y-104755000D01*
X146060000Y-104795000D02*
X140960000Y-104795000D01*
X146059000Y-104835000D02*
X140961000Y-104835000D01*
X146058000Y-104875000D02*
X140962000Y-104875000D01*
X146056000Y-104915000D02*
X140964000Y-104915000D01*
X146053000Y-104955000D02*
X140967000Y-104955000D01*
X146049000Y-104995000D02*
X140971000Y-104995000D01*
X146045000Y-105035000D02*
X144490000Y-105035000D01*
X142530000Y-105035000D02*
X140975000Y-105035000D01*
X146041000Y-105075000D02*
X144490000Y-105075000D01*
X142530000Y-105075000D02*
X140979000Y-105075000D01*
X146035000Y-105115000D02*
X144490000Y-105115000D01*
X142530000Y-105115000D02*
X140985000Y-105115000D01*
X146029000Y-105155000D02*
X144490000Y-105155000D01*
X142530000Y-105155000D02*
X140991000Y-105155000D01*
X146023000Y-105195000D02*
X144490000Y-105195000D01*
X142530000Y-105195000D02*
X140997000Y-105195000D01*
X146016000Y-105235000D02*
X144490000Y-105235000D01*
X142530000Y-105235000D02*
X141004000Y-105235000D01*
X146008000Y-105275000D02*
X144490000Y-105275000D01*
X142530000Y-105275000D02*
X141012000Y-105275000D01*
X145999000Y-105315000D02*
X144490000Y-105315000D01*
X142530000Y-105315000D02*
X141021000Y-105315000D01*
X145990000Y-105355000D02*
X144490000Y-105355000D01*
X142530000Y-105355000D02*
X141030000Y-105355000D01*
X145980000Y-105395000D02*
X144490000Y-105395000D01*
X142530000Y-105395000D02*
X141040000Y-105395000D01*
X145970000Y-105435000D02*
X144490000Y-105435000D01*
X142530000Y-105435000D02*
X141050000Y-105435000D01*
X145958000Y-105476000D02*
X144490000Y-105476000D01*
X142530000Y-105476000D02*
X141062000Y-105476000D01*
X145946000Y-105516000D02*
X144490000Y-105516000D01*
X142530000Y-105516000D02*
X141074000Y-105516000D01*
X145934000Y-105556000D02*
X144490000Y-105556000D01*
X142530000Y-105556000D02*
X141086000Y-105556000D01*
X145920000Y-105596000D02*
X144490000Y-105596000D01*
X142530000Y-105596000D02*
X141100000Y-105596000D01*
X145906000Y-105636000D02*
X144490000Y-105636000D01*
X142530000Y-105636000D02*
X141114000Y-105636000D01*
X145892000Y-105676000D02*
X144490000Y-105676000D01*
X142530000Y-105676000D02*
X141128000Y-105676000D01*
X145876000Y-105716000D02*
X144490000Y-105716000D01*
X142530000Y-105716000D02*
X141144000Y-105716000D01*
X145860000Y-105756000D02*
X144490000Y-105756000D01*
X142530000Y-105756000D02*
X141160000Y-105756000D01*
X145843000Y-105796000D02*
X144490000Y-105796000D01*
X142530000Y-105796000D02*
X141177000Y-105796000D01*
X145825000Y-105836000D02*
X144490000Y-105836000D01*
X142530000Y-105836000D02*
X141195000Y-105836000D01*
X145806000Y-105876000D02*
X144490000Y-105876000D01*
X142530000Y-105876000D02*
X141214000Y-105876000D01*
X145786000Y-105916000D02*
X144490000Y-105916000D01*
X142530000Y-105916000D02*
X141234000Y-105916000D01*
X145766000Y-105956000D02*
X144490000Y-105956000D01*
X142530000Y-105956000D02*
X141254000Y-105956000D01*
X145744000Y-105996000D02*
X144490000Y-105996000D01*
X142530000Y-105996000D02*
X141276000Y-105996000D01*
X145722000Y-106036000D02*
X144490000Y-106036000D01*
X142530000Y-106036000D02*
X141298000Y-106036000D01*
X145699000Y-106076000D02*
X144490000Y-106076000D01*
X142530000Y-106076000D02*
X141321000Y-106076000D01*
X145675000Y-106116000D02*
X144490000Y-106116000D01*
X142530000Y-106116000D02*
X141345000Y-106116000D01*
X145650000Y-106156000D02*
X144490000Y-106156000D01*
X142530000Y-106156000D02*
X141370000Y-106156000D01*
X145623000Y-106196000D02*
X144490000Y-106196000D01*
X142530000Y-106196000D02*
X141397000Y-106196000D01*
X145596000Y-106236000D02*
X144490000Y-106236000D01*
X142530000Y-106236000D02*
X141424000Y-106236000D01*
X145568000Y-106276000D02*
X144490000Y-106276000D01*
X142530000Y-106276000D02*
X141452000Y-106276000D01*
X145538000Y-106316000D02*
X144490000Y-106316000D01*
X142530000Y-106316000D02*
X141482000Y-106316000D01*
X145507000Y-106356000D02*
X144490000Y-106356000D01*
X142530000Y-106356000D02*
X141513000Y-106356000D01*
X145475000Y-106396000D02*
X144490000Y-106396000D01*
X142530000Y-106396000D02*
X141545000Y-106396000D01*
X145442000Y-106436000D02*
X144490000Y-106436000D01*
X142530000Y-106436000D02*
X141578000Y-106436000D01*
X145407000Y-106476000D02*
X144490000Y-106476000D01*
X142530000Y-106476000D02*
X141613000Y-106476000D01*
X145371000Y-106516000D02*
X144490000Y-106516000D01*
X142530000Y-106516000D02*
X141649000Y-106516000D01*
X145333000Y-106556000D02*
X144490000Y-106556000D01*
X142530000Y-106556000D02*
X141687000Y-106556000D01*
X145293000Y-106596000D02*
X144490000Y-106596000D01*
X142530000Y-106596000D02*
X141727000Y-106596000D01*
X145252000Y-106636000D02*
X144490000Y-106636000D01*
X142530000Y-106636000D02*
X141768000Y-106636000D01*
X145209000Y-106676000D02*
X144490000Y-106676000D01*
X142530000Y-106676000D02*
X141811000Y-106676000D01*
X145164000Y-106716000D02*
X144490000Y-106716000D01*
X142530000Y-106716000D02*
X141856000Y-106716000D01*
X145116000Y-106756000D02*
X144490000Y-106756000D01*
X142530000Y-106756000D02*
X141904000Y-106756000D01*
X145066000Y-106796000D02*
X144490000Y-106796000D01*
X142530000Y-106796000D02*
X141954000Y-106796000D01*
X145014000Y-106836000D02*
X144490000Y-106836000D01*
X142530000Y-106836000D02*
X142006000Y-106836000D01*
X144958000Y-106876000D02*
X144490000Y-106876000D01*
X142530000Y-106876000D02*
X142062000Y-106876000D01*
X144900000Y-106916000D02*
X144490000Y-106916000D01*
X142530000Y-106916000D02*
X142120000Y-106916000D01*
X144837000Y-106956000D02*
X144490000Y-106956000D01*
X142530000Y-106956000D02*
X142183000Y-106956000D01*
X144771000Y-106996000D02*
X142249000Y-106996000D01*
X144699000Y-107036000D02*
X142321000Y-107036000D01*
X144622000Y-107076000D02*
X142398000Y-107076000D01*
X144538000Y-107116000D02*
X142482000Y-107116000D01*
X144444000Y-107156000D02*
X142576000Y-107156000D01*
X144339000Y-107196000D02*
X142681000Y-107196000D01*
X144217000Y-107236000D02*
X142803000Y-107236000D01*
X144069000Y-107276000D02*
X142951000Y-107276000D01*
X143864000Y-107316000D02*
X143156000Y-107316000D01*
X143510000Y-101305000D02*
X143510000Y-102505000D01*
X144160000Y-101905000D02*
X142860000Y-101905000D01*
X132020000Y-107375000D02*
X134680000Y-107375000D01*
X132020000Y-104775000D02*
X132020000Y-107375000D01*
X134680000Y-104775000D02*
X134680000Y-107375000D01*
X132020000Y-104775000D02*
X134680000Y-104775000D01*
X132020000Y-103505000D02*
X132020000Y-102175000D01*
X132020000Y-102175000D02*
X133350000Y-102175000D01*
X132020000Y-118170000D02*
X134680000Y-118170000D01*
X132020000Y-110490000D02*
X132020000Y-118170000D01*
X134680000Y-110490000D02*
X134680000Y-118170000D01*
X132020000Y-110490000D02*
X134680000Y-110490000D01*
X132020000Y-109220000D02*
X132020000Y-107890000D01*
X132020000Y-107890000D02*
X133350000Y-107890000D01*
X152975000Y-115510000D02*
X152975000Y-118170000D01*
X160655000Y-115510000D02*
X152975000Y-115510000D01*
X160655000Y-118170000D02*
X152975000Y-118170000D01*
X160655000Y-115510000D02*
X160655000Y-118170000D01*
X161925000Y-115510000D02*
X163255000Y-115510000D01*
X163255000Y-115510000D02*
X163255000Y-116840000D01*
X160595000Y-114360000D02*
X163255000Y-114360000D01*
X160595000Y-111760000D02*
X160595000Y-114360000D01*
X163255000Y-111760000D02*
X163255000Y-114360000D01*
X160595000Y-111760000D02*
X163255000Y-111760000D01*
X160595000Y-110490000D02*
X160595000Y-109160000D01*
X160595000Y-109160000D02*
X161925000Y-109160000D01*
X160595000Y-107375000D02*
X163255000Y-107375000D01*
X160595000Y-104775000D02*
X160595000Y-107375000D01*
X163255000Y-104775000D02*
X163255000Y-107375000D01*
X160595000Y-104775000D02*
X163255000Y-104775000D01*
X160595000Y-103505000D02*
X160595000Y-102175000D01*
X160595000Y-102175000D02*
X161925000Y-102175000D01*
X140280000Y-116100000D02*
X140280000Y-112500000D01*
X140268478Y-116138478D02*
G75*
G02X135830000Y-114300000I-1838478J1838478D01*
G01*
X140268478Y-112461522D02*
G75*
G03X135830000Y-114300000I-1838478J-1838478D01*
G01*
X140280000Y-106575000D02*
X140280000Y-102975000D01*
X140268478Y-106613478D02*
G75*
G02X135830000Y-104775000I-1838478J1838478D01*
G01*
X140268478Y-102936522D02*
G75*
G03X135830000Y-104775000I-1838478J-1838478D01*
G01*
X149825000Y-108545000D02*
X149825000Y-111165000D01*
X149825000Y-111165000D02*
X156245000Y-111165000D01*
X156245000Y-111165000D02*
X156245000Y-108545000D01*
X156245000Y-108545000D02*
X149825000Y-108545000D01*
X148935000Y-109855000D02*
X149825000Y-109855000D01*
X157135000Y-109855000D02*
X156245000Y-109855000D01*
X149825000Y-102195000D02*
X149825000Y-104815000D01*
X149825000Y-104815000D02*
X156245000Y-104815000D01*
X156245000Y-104815000D02*
X156245000Y-102195000D01*
X156245000Y-102195000D02*
X149825000Y-102195000D01*
X148935000Y-103505000D02*
X149825000Y-103505000D01*
X157135000Y-103505000D02*
X156245000Y-103505000D01*
X149825000Y-111720000D02*
X149825000Y-114340000D01*
X149825000Y-114340000D02*
X156245000Y-114340000D01*
X156245000Y-114340000D02*
X156245000Y-111720000D01*
X156245000Y-111720000D02*
X149825000Y-111720000D01*
X148935000Y-113030000D02*
X149825000Y-113030000D01*
X157135000Y-113030000D02*
X156245000Y-113030000D01*
X149825000Y-105370000D02*
X149825000Y-107990000D01*
X149825000Y-107990000D02*
X156245000Y-107990000D01*
X156245000Y-107990000D02*
X156245000Y-105370000D01*
X156245000Y-105370000D02*
X149825000Y-105370000D01*
X148935000Y-106680000D02*
X149825000Y-106680000D01*
X157135000Y-106680000D02*
X156245000Y-106680000D01*
D12*
X143343334Y-100052143D02*
X143295715Y-100099762D01*
X143152858Y-100147381D01*
X143057620Y-100147381D01*
X142914762Y-100099762D01*
X142819524Y-100004524D01*
X142771905Y-99909286D01*
X142724286Y-99718810D01*
X142724286Y-99575952D01*
X142771905Y-99385476D01*
X142819524Y-99290238D01*
X142914762Y-99195000D01*
X143057620Y-99147381D01*
X143152858Y-99147381D01*
X143295715Y-99195000D01*
X143343334Y-99242619D01*
X144295715Y-100147381D02*
X143724286Y-100147381D01*
X144010000Y-100147381D02*
X144010000Y-99147381D01*
X143914762Y-99290238D01*
X143819524Y-99385476D01*
X143724286Y-99433095D01*
D10*
X142195714Y-107778571D02*
X142195714Y-108311905D01*
X142005238Y-107473810D02*
X141814762Y-108045238D01*
X142310000Y-108045238D01*
X142538572Y-107511905D02*
X143071905Y-107511905D01*
X142729048Y-108311905D01*
X143529048Y-107511905D02*
X143605239Y-107511905D01*
X143681429Y-107550000D01*
X143719524Y-107588095D01*
X143757620Y-107664286D01*
X143795715Y-107816667D01*
X143795715Y-108007143D01*
X143757620Y-108159524D01*
X143719524Y-108235714D01*
X143681429Y-108273810D01*
X143605239Y-108311905D01*
X143529048Y-108311905D01*
X143452858Y-108273810D01*
X143414762Y-108235714D01*
X143376667Y-108159524D01*
X143338572Y-108007143D01*
X143338572Y-107816667D01*
X143376667Y-107664286D01*
X143414762Y-107588095D01*
X143452858Y-107550000D01*
X143529048Y-107511905D01*
X144481429Y-107778571D02*
X144481429Y-108311905D01*
X144138572Y-107778571D02*
X144138572Y-108197619D01*
X144176667Y-108273810D01*
X144252858Y-108311905D01*
X144367144Y-108311905D01*
X144443334Y-108273810D01*
X144481429Y-108235714D01*
X145129049Y-107892857D02*
X144862382Y-107892857D01*
X144862382Y-108311905D02*
X144862382Y-107511905D01*
X145243335Y-107511905D01*
D12*
X129206667Y-102957381D02*
X129206667Y-103671667D01*
X129159047Y-103814524D01*
X129063809Y-103909762D01*
X128920952Y-103957381D01*
X128825714Y-103957381D01*
X130206667Y-103957381D02*
X129635238Y-103957381D01*
X129920952Y-103957381D02*
X129920952Y-102957381D01*
X129825714Y-103100238D01*
X129730476Y-103195476D01*
X129635238Y-103243095D01*
D10*
X131806905Y-106355952D02*
X131006905Y-106355952D01*
X131006905Y-106051190D01*
X131045000Y-105974999D01*
X131083095Y-105936904D01*
X131159286Y-105898809D01*
X131273571Y-105898809D01*
X131349762Y-105936904D01*
X131387857Y-105974999D01*
X131425952Y-106051190D01*
X131425952Y-106355952D01*
X131806905Y-105441666D02*
X131768810Y-105517857D01*
X131730714Y-105555952D01*
X131654524Y-105594047D01*
X131425952Y-105594047D01*
X131349762Y-105555952D01*
X131311667Y-105517857D01*
X131273571Y-105441666D01*
X131273571Y-105327380D01*
X131311667Y-105251190D01*
X131349762Y-105213095D01*
X131425952Y-105174999D01*
X131654524Y-105174999D01*
X131730714Y-105213095D01*
X131768810Y-105251190D01*
X131806905Y-105327380D01*
X131806905Y-105441666D01*
X131273571Y-104908332D02*
X131806905Y-104755951D01*
X131425952Y-104603570D01*
X131806905Y-104451189D01*
X131273571Y-104298808D01*
X131768810Y-103689285D02*
X131806905Y-103765475D01*
X131806905Y-103917856D01*
X131768810Y-103994047D01*
X131692619Y-104032142D01*
X131387857Y-104032142D01*
X131311667Y-103994047D01*
X131273571Y-103917856D01*
X131273571Y-103765475D01*
X131311667Y-103689285D01*
X131387857Y-103651190D01*
X131464048Y-103651190D01*
X131540238Y-104032142D01*
X131806905Y-103308333D02*
X131273571Y-103308333D01*
X131425952Y-103308333D02*
X131349762Y-103270238D01*
X131311667Y-103232142D01*
X131273571Y-103155952D01*
X131273571Y-103079761D01*
D12*
X129206667Y-108672381D02*
X129206667Y-109386667D01*
X129159047Y-109529524D01*
X129063809Y-109624762D01*
X128920952Y-109672381D01*
X128825714Y-109672381D01*
X129635238Y-108767619D02*
X129682857Y-108720000D01*
X129778095Y-108672381D01*
X130016191Y-108672381D01*
X130111429Y-108720000D01*
X130159048Y-108767619D01*
X130206667Y-108862857D01*
X130206667Y-108958095D01*
X130159048Y-109100952D01*
X129587619Y-109672381D01*
X130206667Y-109672381D01*
D10*
X131730714Y-115030000D02*
X131768810Y-115068095D01*
X131806905Y-115182381D01*
X131806905Y-115258571D01*
X131768810Y-115372857D01*
X131692619Y-115449048D01*
X131616429Y-115487143D01*
X131464048Y-115525238D01*
X131349762Y-115525238D01*
X131197381Y-115487143D01*
X131121190Y-115449048D01*
X131045000Y-115372857D01*
X131006905Y-115258571D01*
X131006905Y-115182381D01*
X131045000Y-115068095D01*
X131083095Y-115030000D01*
X131006905Y-114763333D02*
X131806905Y-114230000D01*
X131006905Y-114230000D02*
X131806905Y-114763333D01*
X131578333Y-113963333D02*
X131578333Y-113582381D01*
X131806905Y-114039524D02*
X131006905Y-113772857D01*
X131806905Y-113506190D01*
X131806905Y-112820476D02*
X131806905Y-113277619D01*
X131806905Y-113049048D02*
X131006905Y-113049048D01*
X131121190Y-113125238D01*
X131197381Y-113201429D01*
X131235476Y-113277619D01*
X131806905Y-112058571D02*
X131806905Y-112515714D01*
X131806905Y-112287143D02*
X131006905Y-112287143D01*
X131121190Y-112363333D01*
X131197381Y-112439524D01*
X131235476Y-112515714D01*
X131273571Y-111372857D02*
X131806905Y-111372857D01*
X130968810Y-111563333D02*
X131540238Y-111753809D01*
X131540238Y-111258571D01*
X131006905Y-110572856D02*
X131006905Y-110953809D01*
X131387857Y-110991904D01*
X131349762Y-110953809D01*
X131311667Y-110877618D01*
X131311667Y-110687142D01*
X131349762Y-110610952D01*
X131387857Y-110572856D01*
X131464048Y-110534761D01*
X131654524Y-110534761D01*
X131730714Y-110572856D01*
X131768810Y-110610952D01*
X131806905Y-110687142D01*
X131806905Y-110877618D01*
X131768810Y-110953809D01*
X131730714Y-110991904D01*
D12*
X165401667Y-116292381D02*
X165401667Y-117006667D01*
X165354047Y-117149524D01*
X165258809Y-117244762D01*
X165115952Y-117292381D01*
X165020714Y-117292381D01*
X165782619Y-116292381D02*
X166401667Y-116292381D01*
X166068333Y-116673333D01*
X166211191Y-116673333D01*
X166306429Y-116720952D01*
X166354048Y-116768571D01*
X166401667Y-116863810D01*
X166401667Y-117101905D01*
X166354048Y-117197143D01*
X166306429Y-117244762D01*
X166211191Y-117292381D01*
X165925476Y-117292381D01*
X165830238Y-117244762D01*
X165782619Y-117197143D01*
D10*
X156286429Y-119068810D02*
X156400715Y-119106905D01*
X156591191Y-119106905D01*
X156667381Y-119068810D01*
X156705477Y-119030714D01*
X156743572Y-118954524D01*
X156743572Y-118878333D01*
X156705477Y-118802143D01*
X156667381Y-118764048D01*
X156591191Y-118725952D01*
X156438810Y-118687857D01*
X156362619Y-118649762D01*
X156324524Y-118611667D01*
X156286429Y-118535476D01*
X156286429Y-118459286D01*
X156324524Y-118383095D01*
X156362619Y-118345000D01*
X156438810Y-118306905D01*
X156629286Y-118306905D01*
X156743572Y-118345000D01*
X156972143Y-118306905D02*
X157238810Y-119106905D01*
X157505477Y-118306905D01*
X157772143Y-119106905D02*
X157772143Y-118573571D01*
X157772143Y-118306905D02*
X157734048Y-118345000D01*
X157772143Y-118383095D01*
X157810238Y-118345000D01*
X157772143Y-118306905D01*
X157772143Y-118383095D01*
X158495952Y-119106905D02*
X158495952Y-118306905D01*
X158495952Y-119068810D02*
X158419762Y-119106905D01*
X158267381Y-119106905D01*
X158191190Y-119068810D01*
X158153095Y-119030714D01*
X158115000Y-118954524D01*
X158115000Y-118725952D01*
X158153095Y-118649762D01*
X158191190Y-118611667D01*
X158267381Y-118573571D01*
X158419762Y-118573571D01*
X158495952Y-118611667D01*
X159181667Y-119068810D02*
X159105477Y-119106905D01*
X158953096Y-119106905D01*
X158876905Y-119068810D01*
X158838810Y-118992619D01*
X158838810Y-118687857D01*
X158876905Y-118611667D01*
X158953096Y-118573571D01*
X159105477Y-118573571D01*
X159181667Y-118611667D01*
X159219762Y-118687857D01*
X159219762Y-118764048D01*
X158838810Y-118840238D01*
X159676905Y-119106905D02*
X159600714Y-119068810D01*
X159562619Y-119030714D01*
X159524524Y-118954524D01*
X159524524Y-118725952D01*
X159562619Y-118649762D01*
X159600714Y-118611667D01*
X159676905Y-118573571D01*
X159791191Y-118573571D01*
X159867381Y-118611667D01*
X159905476Y-118649762D01*
X159943572Y-118725952D01*
X159943572Y-118954524D01*
X159905476Y-119030714D01*
X159867381Y-119068810D01*
X159791191Y-119106905D01*
X159676905Y-119106905D01*
D12*
X165401667Y-109942381D02*
X165401667Y-110656667D01*
X165354047Y-110799524D01*
X165258809Y-110894762D01*
X165115952Y-110942381D01*
X165020714Y-110942381D01*
X166306429Y-110275714D02*
X166306429Y-110942381D01*
X166068333Y-109894762D02*
X165830238Y-110609048D01*
X166449286Y-110609048D01*
D10*
X159581905Y-113283810D02*
X160381905Y-113017143D01*
X159581905Y-112750476D01*
X160381905Y-112483810D02*
X159848571Y-112483810D01*
X159581905Y-112483810D02*
X159620000Y-112521905D01*
X159658095Y-112483810D01*
X159620000Y-112445715D01*
X159581905Y-112483810D01*
X159658095Y-112483810D01*
X160381905Y-111760001D02*
X159581905Y-111760001D01*
X160343810Y-111760001D02*
X160381905Y-111836191D01*
X160381905Y-111988572D01*
X160343810Y-112064763D01*
X160305714Y-112102858D01*
X160229524Y-112140953D01*
X160000952Y-112140953D01*
X159924762Y-112102858D01*
X159886667Y-112064763D01*
X159848571Y-111988572D01*
X159848571Y-111836191D01*
X159886667Y-111760001D01*
X160343810Y-111074286D02*
X160381905Y-111150476D01*
X160381905Y-111302857D01*
X160343810Y-111379048D01*
X160267619Y-111417143D01*
X159962857Y-111417143D01*
X159886667Y-111379048D01*
X159848571Y-111302857D01*
X159848571Y-111150476D01*
X159886667Y-111074286D01*
X159962857Y-111036191D01*
X160039048Y-111036191D01*
X160115238Y-111417143D01*
X160381905Y-110579048D02*
X160343810Y-110655239D01*
X160305714Y-110693334D01*
X160229524Y-110731429D01*
X160000952Y-110731429D01*
X159924762Y-110693334D01*
X159886667Y-110655239D01*
X159848571Y-110579048D01*
X159848571Y-110464762D01*
X159886667Y-110388572D01*
X159924762Y-110350477D01*
X160000952Y-110312381D01*
X160229524Y-110312381D01*
X160305714Y-110350477D01*
X160343810Y-110388572D01*
X160381905Y-110464762D01*
X160381905Y-110579048D01*
D12*
X165401667Y-102957381D02*
X165401667Y-103671667D01*
X165354047Y-103814524D01*
X165258809Y-103909762D01*
X165115952Y-103957381D01*
X165020714Y-103957381D01*
X166354048Y-102957381D02*
X165877857Y-102957381D01*
X165830238Y-103433571D01*
X165877857Y-103385952D01*
X165973095Y-103338333D01*
X166211191Y-103338333D01*
X166306429Y-103385952D01*
X166354048Y-103433571D01*
X166401667Y-103528810D01*
X166401667Y-103766905D01*
X166354048Y-103862143D01*
X166306429Y-103909762D01*
X166211191Y-103957381D01*
X165973095Y-103957381D01*
X165877857Y-103909762D01*
X165830238Y-103862143D01*
D10*
X160153333Y-106241667D02*
X160153333Y-105860715D01*
X160381905Y-106317858D02*
X159581905Y-106051191D01*
X160381905Y-105784524D01*
X159848571Y-105175001D02*
X160381905Y-105175001D01*
X159848571Y-105517858D02*
X160267619Y-105517858D01*
X160343810Y-105479763D01*
X160381905Y-105403572D01*
X160381905Y-105289286D01*
X160343810Y-105213096D01*
X160305714Y-105175001D01*
X160381905Y-104451191D02*
X159581905Y-104451191D01*
X160343810Y-104451191D02*
X160381905Y-104527381D01*
X160381905Y-104679762D01*
X160343810Y-104755953D01*
X160305714Y-104794048D01*
X160229524Y-104832143D01*
X160000952Y-104832143D01*
X159924762Y-104794048D01*
X159886667Y-104755953D01*
X159848571Y-104679762D01*
X159848571Y-104527381D01*
X159886667Y-104451191D01*
X160381905Y-104070238D02*
X159848571Y-104070238D01*
X159581905Y-104070238D02*
X159620000Y-104108333D01*
X159658095Y-104070238D01*
X159620000Y-104032143D01*
X159581905Y-104070238D01*
X159658095Y-104070238D01*
X160381905Y-103575000D02*
X160343810Y-103651191D01*
X160305714Y-103689286D01*
X160229524Y-103727381D01*
X160000952Y-103727381D01*
X159924762Y-103689286D01*
X159886667Y-103651191D01*
X159848571Y-103575000D01*
X159848571Y-103460714D01*
X159886667Y-103384524D01*
X159924762Y-103346429D01*
X160000952Y-103308333D01*
X160229524Y-103308333D01*
X160305714Y-103346429D01*
X160343810Y-103384524D01*
X160381905Y-103460714D01*
X160381905Y-103575000D01*
X140138095Y-114376190D02*
X140100000Y-114452381D01*
X140023810Y-114528571D01*
X139909524Y-114642857D01*
X139871429Y-114719048D01*
X139871429Y-114795238D01*
X140061905Y-114757143D02*
X140023810Y-114833333D01*
X139947619Y-114909524D01*
X139795238Y-114947619D01*
X139528571Y-114947619D01*
X139376190Y-114909524D01*
X139300000Y-114833333D01*
X139261905Y-114757143D01*
X139261905Y-114604762D01*
X139300000Y-114528571D01*
X139376190Y-114452381D01*
X139528571Y-114414286D01*
X139795238Y-114414286D01*
X139947619Y-114452381D01*
X140023810Y-114528571D01*
X140061905Y-114604762D01*
X140061905Y-114757143D01*
X140061905Y-113652381D02*
X140061905Y-114109524D01*
X140061905Y-113880953D02*
X139261905Y-113880953D01*
X139376190Y-113957143D01*
X139452381Y-114033334D01*
X139490476Y-114109524D01*
X136258571Y-117113095D02*
X136296666Y-117075000D01*
X136372857Y-117036905D01*
X136563333Y-117036905D01*
X136639523Y-117075000D01*
X136677619Y-117113095D01*
X136715714Y-117189286D01*
X136715714Y-117265476D01*
X136677619Y-117379762D01*
X136220476Y-117836905D01*
X136715714Y-117836905D01*
X137058571Y-117836905D02*
X137058571Y-117036905D01*
X137515714Y-117836905D01*
X137515714Y-117036905D01*
X137820476Y-117036905D02*
X138315714Y-117036905D01*
X138049047Y-117341667D01*
X138163333Y-117341667D01*
X138239523Y-117379762D01*
X138277619Y-117417857D01*
X138315714Y-117494048D01*
X138315714Y-117684524D01*
X138277619Y-117760714D01*
X138239523Y-117798810D01*
X138163333Y-117836905D01*
X137934761Y-117836905D01*
X137858571Y-117798810D01*
X137820476Y-117760714D01*
X138696666Y-117836905D02*
X138849047Y-117836905D01*
X138925238Y-117798810D01*
X138963333Y-117760714D01*
X139039524Y-117646429D01*
X139077619Y-117494048D01*
X139077619Y-117189286D01*
X139039524Y-117113095D01*
X139001428Y-117075000D01*
X138925238Y-117036905D01*
X138772857Y-117036905D01*
X138696666Y-117075000D01*
X138658571Y-117113095D01*
X138620476Y-117189286D01*
X138620476Y-117379762D01*
X138658571Y-117455952D01*
X138696666Y-117494048D01*
X138772857Y-117532143D01*
X138925238Y-117532143D01*
X139001428Y-117494048D01*
X139039524Y-117455952D01*
X139077619Y-117379762D01*
X139572857Y-117036905D02*
X139649048Y-117036905D01*
X139725238Y-117075000D01*
X139763333Y-117113095D01*
X139801429Y-117189286D01*
X139839524Y-117341667D01*
X139839524Y-117532143D01*
X139801429Y-117684524D01*
X139763333Y-117760714D01*
X139725238Y-117798810D01*
X139649048Y-117836905D01*
X139572857Y-117836905D01*
X139496667Y-117798810D01*
X139458571Y-117760714D01*
X139420476Y-117684524D01*
X139382381Y-117532143D01*
X139382381Y-117341667D01*
X139420476Y-117189286D01*
X139458571Y-117113095D01*
X139496667Y-117075000D01*
X139572857Y-117036905D01*
X140525238Y-117303571D02*
X140525238Y-117836905D01*
X140334762Y-116998810D02*
X140144286Y-117570238D01*
X140639524Y-117570238D01*
X140138095Y-104851190D02*
X140100000Y-104927381D01*
X140023810Y-105003571D01*
X139909524Y-105117857D01*
X139871429Y-105194048D01*
X139871429Y-105270238D01*
X140061905Y-105232143D02*
X140023810Y-105308333D01*
X139947619Y-105384524D01*
X139795238Y-105422619D01*
X139528571Y-105422619D01*
X139376190Y-105384524D01*
X139300000Y-105308333D01*
X139261905Y-105232143D01*
X139261905Y-105079762D01*
X139300000Y-105003571D01*
X139376190Y-104927381D01*
X139528571Y-104889286D01*
X139795238Y-104889286D01*
X139947619Y-104927381D01*
X140023810Y-105003571D01*
X140061905Y-105079762D01*
X140061905Y-105232143D01*
X139338095Y-104584524D02*
X139300000Y-104546429D01*
X139261905Y-104470238D01*
X139261905Y-104279762D01*
X139300000Y-104203572D01*
X139338095Y-104165476D01*
X139414286Y-104127381D01*
X139490476Y-104127381D01*
X139604762Y-104165476D01*
X140061905Y-104622619D01*
X140061905Y-104127381D01*
X136258571Y-107588095D02*
X136296666Y-107550000D01*
X136372857Y-107511905D01*
X136563333Y-107511905D01*
X136639523Y-107550000D01*
X136677619Y-107588095D01*
X136715714Y-107664286D01*
X136715714Y-107740476D01*
X136677619Y-107854762D01*
X136220476Y-108311905D01*
X136715714Y-108311905D01*
X137058571Y-108311905D02*
X137058571Y-107511905D01*
X137515714Y-108311905D01*
X137515714Y-107511905D01*
X137820476Y-107511905D02*
X138315714Y-107511905D01*
X138049047Y-107816667D01*
X138163333Y-107816667D01*
X138239523Y-107854762D01*
X138277619Y-107892857D01*
X138315714Y-107969048D01*
X138315714Y-108159524D01*
X138277619Y-108235714D01*
X138239523Y-108273810D01*
X138163333Y-108311905D01*
X137934761Y-108311905D01*
X137858571Y-108273810D01*
X137820476Y-108235714D01*
X138696666Y-108311905D02*
X138849047Y-108311905D01*
X138925238Y-108273810D01*
X138963333Y-108235714D01*
X139039524Y-108121429D01*
X139077619Y-107969048D01*
X139077619Y-107664286D01*
X139039524Y-107588095D01*
X139001428Y-107550000D01*
X138925238Y-107511905D01*
X138772857Y-107511905D01*
X138696666Y-107550000D01*
X138658571Y-107588095D01*
X138620476Y-107664286D01*
X138620476Y-107854762D01*
X138658571Y-107930952D01*
X138696666Y-107969048D01*
X138772857Y-108007143D01*
X138925238Y-108007143D01*
X139001428Y-107969048D01*
X139039524Y-107930952D01*
X139077619Y-107854762D01*
X139572857Y-107511905D02*
X139649048Y-107511905D01*
X139725238Y-107550000D01*
X139763333Y-107588095D01*
X139801429Y-107664286D01*
X139839524Y-107816667D01*
X139839524Y-108007143D01*
X139801429Y-108159524D01*
X139763333Y-108235714D01*
X139725238Y-108273810D01*
X139649048Y-108311905D01*
X139572857Y-108311905D01*
X139496667Y-108273810D01*
X139458571Y-108235714D01*
X139420476Y-108159524D01*
X139382381Y-108007143D01*
X139382381Y-107816667D01*
X139420476Y-107664286D01*
X139458571Y-107588095D01*
X139496667Y-107550000D01*
X139572857Y-107511905D01*
X140525238Y-107778571D02*
X140525238Y-108311905D01*
X140334762Y-107473810D02*
X140144286Y-108045238D01*
X140639524Y-108045238D01*
D12*
X151582381Y-110021666D02*
X151106190Y-110355000D01*
X151582381Y-110593095D02*
X150582381Y-110593095D01*
X150582381Y-110212142D01*
X150630000Y-110116904D01*
X150677619Y-110069285D01*
X150772857Y-110021666D01*
X150915714Y-110021666D01*
X151010952Y-110069285D01*
X151058571Y-110116904D01*
X151106190Y-110212142D01*
X151106190Y-110593095D01*
X151582381Y-109069285D02*
X151582381Y-109640714D01*
X151582381Y-109355000D02*
X150582381Y-109355000D01*
X150725238Y-109450238D01*
X150820476Y-109545476D01*
X150868095Y-109640714D01*
X153638334Y-110307381D02*
X153066905Y-110307381D01*
X153352619Y-110307381D02*
X153352619Y-109307381D01*
X153257381Y-109450238D01*
X153162143Y-109545476D01*
X153066905Y-109593095D01*
X154543096Y-109307381D02*
X154066905Y-109307381D01*
X154019286Y-109783571D01*
X154066905Y-109735952D01*
X154162143Y-109688333D01*
X154400239Y-109688333D01*
X154495477Y-109735952D01*
X154543096Y-109783571D01*
X154590715Y-109878810D01*
X154590715Y-110116905D01*
X154543096Y-110212143D01*
X154495477Y-110259762D01*
X154400239Y-110307381D01*
X154162143Y-110307381D01*
X154066905Y-110259762D01*
X154019286Y-110212143D01*
X155209762Y-109307381D02*
X155305001Y-109307381D01*
X155400239Y-109355000D01*
X155447858Y-109402619D01*
X155495477Y-109497857D01*
X155543096Y-109688333D01*
X155543096Y-109926429D01*
X155495477Y-110116905D01*
X155447858Y-110212143D01*
X155400239Y-110259762D01*
X155305001Y-110307381D01*
X155209762Y-110307381D01*
X155114524Y-110259762D01*
X155066905Y-110212143D01*
X155019286Y-110116905D01*
X154971667Y-109926429D01*
X154971667Y-109688333D01*
X155019286Y-109497857D01*
X155066905Y-109402619D01*
X155114524Y-109355000D01*
X155209762Y-109307381D01*
X151582381Y-103671666D02*
X151106190Y-104005000D01*
X151582381Y-104243095D02*
X150582381Y-104243095D01*
X150582381Y-103862142D01*
X150630000Y-103766904D01*
X150677619Y-103719285D01*
X150772857Y-103671666D01*
X150915714Y-103671666D01*
X151010952Y-103719285D01*
X151058571Y-103766904D01*
X151106190Y-103862142D01*
X151106190Y-104243095D01*
X150677619Y-103290714D02*
X150630000Y-103243095D01*
X150582381Y-103147857D01*
X150582381Y-102909761D01*
X150630000Y-102814523D01*
X150677619Y-102766904D01*
X150772857Y-102719285D01*
X150868095Y-102719285D01*
X151010952Y-102766904D01*
X151582381Y-103338333D01*
X151582381Y-102719285D01*
X153495476Y-102957381D02*
X154162143Y-102957381D01*
X153733571Y-103957381D01*
X155019286Y-102957381D02*
X154543095Y-102957381D01*
X154495476Y-103433571D01*
X154543095Y-103385952D01*
X154638333Y-103338333D01*
X154876429Y-103338333D01*
X154971667Y-103385952D01*
X155019286Y-103433571D01*
X155066905Y-103528810D01*
X155066905Y-103766905D01*
X155019286Y-103862143D01*
X154971667Y-103909762D01*
X154876429Y-103957381D01*
X154638333Y-103957381D01*
X154543095Y-103909762D01*
X154495476Y-103862143D01*
X151582381Y-113196666D02*
X151106190Y-113530000D01*
X151582381Y-113768095D02*
X150582381Y-113768095D01*
X150582381Y-113387142D01*
X150630000Y-113291904D01*
X150677619Y-113244285D01*
X150772857Y-113196666D01*
X150915714Y-113196666D01*
X151010952Y-113244285D01*
X151058571Y-113291904D01*
X151106190Y-113387142D01*
X151106190Y-113768095D01*
X150582381Y-112863333D02*
X150582381Y-112244285D01*
X150963333Y-112577619D01*
X150963333Y-112434761D01*
X151010952Y-112339523D01*
X151058571Y-112291904D01*
X151153810Y-112244285D01*
X151391905Y-112244285D01*
X151487143Y-112291904D01*
X151534762Y-112339523D01*
X151582381Y-112434761D01*
X151582381Y-112720476D01*
X151534762Y-112815714D01*
X151487143Y-112863333D01*
X153495476Y-112482381D02*
X154114524Y-112482381D01*
X153781190Y-112863333D01*
X153924048Y-112863333D01*
X154019286Y-112910952D01*
X154066905Y-112958571D01*
X154114524Y-113053810D01*
X154114524Y-113291905D01*
X154066905Y-113387143D01*
X154019286Y-113434762D01*
X153924048Y-113482381D01*
X153638333Y-113482381D01*
X153543095Y-113434762D01*
X153495476Y-113387143D01*
X154447857Y-112482381D02*
X155066905Y-112482381D01*
X154733571Y-112863333D01*
X154876429Y-112863333D01*
X154971667Y-112910952D01*
X155019286Y-112958571D01*
X155066905Y-113053810D01*
X155066905Y-113291905D01*
X155019286Y-113387143D01*
X154971667Y-113434762D01*
X154876429Y-113482381D01*
X154590714Y-113482381D01*
X154495476Y-113434762D01*
X154447857Y-113387143D01*
X151582381Y-106846666D02*
X151106190Y-107180000D01*
X151582381Y-107418095D02*
X150582381Y-107418095D01*
X150582381Y-107037142D01*
X150630000Y-106941904D01*
X150677619Y-106894285D01*
X150772857Y-106846666D01*
X150915714Y-106846666D01*
X151010952Y-106894285D01*
X151058571Y-106941904D01*
X151106190Y-107037142D01*
X151106190Y-107418095D01*
X150915714Y-105989523D02*
X151582381Y-105989523D01*
X150534762Y-106227619D02*
X151249048Y-106465714D01*
X151249048Y-105846666D01*
X153495476Y-106132381D02*
X154162143Y-106132381D01*
X153733571Y-107132381D01*
X155019286Y-106132381D02*
X154543095Y-106132381D01*
X154495476Y-106608571D01*
X154543095Y-106560952D01*
X154638333Y-106513333D01*
X154876429Y-106513333D01*
X154971667Y-106560952D01*
X155019286Y-106608571D01*
X155066905Y-106703810D01*
X155066905Y-106941905D01*
X155019286Y-107037143D01*
X154971667Y-107084762D01*
X154876429Y-107132381D01*
X154638333Y-107132381D01*
X154543095Y-107084762D01*
X154495476Y-107037143D01*
M02*
